<mxfile modified="2022-01-24T13:22:40.431Z" host="app.diagrams.net" agent="5.0 (Macintosh; Intel Mac OS X 10_15_7) AppleWebKit/537.36 (KHTML, like Gecko) Chrome/97.0.4692.71 Safari/537.36" etag="d83hnmJz1t0giB_pmQGr" version="16.4.3" type="github">
  <diagram id="Ht1M8jgEwFfnCIfOTk4-" name="Page-1">
    <mxGraphModel dx="1426" dy="1596" grid="1" gridSize="10" guides="1" tooltips="1" connect="1" arrows="1" fold="1" page="1" pageScale="1" pageWidth="1169" pageHeight="827" math="0" shadow="0">
      <root>
        <mxCell id="0" />
        <mxCell id="1" parent="0" />
        <mxCell id="2G1lmGuWpZuiCo4TVPLS-4" value="VPC" style="points=[[0,0],[0.25,0],[0.5,0],[0.75,0],[1,0],[1,0.25],[1,0.5],[1,0.75],[1,1],[0.75,1],[0.5,1],[0.25,1],[0,1],[0,0.75],[0,0.5],[0,0.25]];outlineConnect=0;gradientColor=none;html=1;whiteSpace=wrap;fontSize=12;fontStyle=0;shape=mxgraph.aws4.group;grIcon=mxgraph.aws4.group_vpc;strokeColor=#248814;fillColor=none;verticalAlign=top;align=left;spacingLeft=30;fontColor=#AAB7B8;dashed=0;" parent="1" vertex="1">
          <mxGeometry x="710" y="-644.22" width="310" height="157" as="geometry" />
        </mxCell>
        <mxCell id="2G1lmGuWpZuiCo4TVPLS-1" value="AB test bot&lt;br&gt;" style="shape=image;html=1;verticalAlign=top;verticalLabelPosition=bottom;labelBackgroundColor=#ffffff;imageAspect=0;aspect=fixed;image=https://cdn2.iconfinder.com/data/icons/social-media-2285/512/1_Slack_colored_svg-128.png" parent="1" vertex="1">
          <mxGeometry x="339" y="-594.72" width="50" height="50" as="geometry" />
        </mxCell>
        <mxCell id="2G1lmGuWpZuiCo4TVPLS-6" value="abtest-query-slack-app-api" style="points=[[0,0,0],[0.25,0,0],[0.5,0,0],[0.75,0,0],[1,0,0],[0,1,0],[0.25,1,0],[0.5,1,0],[0.75,1,0],[1,1,0],[0,0.25,0],[0,0.5,0],[0,0.75,0],[1,0.25,0],[1,0.5,0],[1,0.75,0]];outlineConnect=0;fontColor=#232F3E;gradientColor=#F78E04;gradientDirection=north;fillColor=#D05C17;strokeColor=#ffffff;dashed=0;verticalLabelPosition=bottom;verticalAlign=top;align=center;html=1;fontSize=12;fontStyle=0;aspect=fixed;shape=mxgraph.aws4.resourceIcon;resIcon=mxgraph.aws4.lambda;" parent="1" vertex="1">
          <mxGeometry x="573" y="-594" width="50" height="50" as="geometry" />
        </mxCell>
        <mxCell id="2G1lmGuWpZuiCo4TVPLS-7" value="AB Test Internal" style="outlineConnect=0;dashed=0;verticalLabelPosition=bottom;verticalAlign=top;align=center;html=1;shape=mxgraph.aws3.ec2;fillColor=#F58534;gradientColor=none;aspect=fixed;" parent="1" vertex="1">
          <mxGeometry x="938" y="-601.5" width="50" height="60.78" as="geometry" />
        </mxCell>
        <mxCell id="2G1lmGuWpZuiCo4TVPLS-8" value="slack-dongCode-options" style="points=[[0,0,0],[0.25,0,0],[0.5,0,0],[0.75,0,0],[1,0,0],[0,1,0],[0.25,1,0],[0.5,1,0],[0.75,1,0],[1,1,0],[0,0.25,0],[0,0.5,0],[0,0.75,0],[1,0.25,0],[1,0.5,0],[1,0.75,0]];outlineConnect=0;fontColor=#232F3E;gradientColor=#F78E04;gradientDirection=north;fillColor=#D05C17;strokeColor=#ffffff;dashed=0;verticalLabelPosition=bottom;verticalAlign=top;align=center;html=1;fontSize=12;fontStyle=0;aspect=fixed;shape=mxgraph.aws4.resourceIcon;resIcon=mxgraph.aws4.lambda;" parent="1" vertex="1">
          <mxGeometry x="573" y="-790" width="50" height="50" as="geometry" />
        </mxCell>
        <mxCell id="2G1lmGuWpZuiCo4TVPLS-11" value="- 입력 폼 조회&lt;br&gt;- AB테스트 그룹 조회" style="endArrow=classic;html=1;exitX=1;exitY=0.5;exitDx=0;exitDy=0;entryX=0;entryY=0.5;entryDx=0;entryDy=0;entryPerimeter=0;" parent="1" source="2G1lmGuWpZuiCo4TVPLS-1" edge="1" target="2G1lmGuWpZuiCo4TVPLS-6">
          <mxGeometry width="50" height="50" relative="1" as="geometry">
            <mxPoint x="430" y="-540.72" as="sourcePoint" />
            <mxPoint x="590" y="-566" as="targetPoint" />
          </mxGeometry>
        </mxCell>
        <mxCell id="2G1lmGuWpZuiCo4TVPLS-18" value="&lt;br&gt;" style="endArrow=classic;html=1;startArrow=none;startFill=0;exitX=1;exitY=0.5;exitDx=0;exitDy=0;exitPerimeter=0;" parent="1" edge="1" target="2G1lmGuWpZuiCo4TVPLS-7" source="YxMa3ve18M_grNWk3aBt-1">
          <mxGeometry width="50" height="50" relative="1" as="geometry">
            <mxPoint x="643" y="-566" as="sourcePoint" />
            <mxPoint x="808" y="-566.963947368421" as="targetPoint" />
          </mxGeometry>
        </mxCell>
        <mxCell id="2G1lmGuWpZuiCo4TVPLS-23" value="지역 검색 (셀렉트 박스)" style="endArrow=classic;html=1;exitX=0.5;exitY=0;exitDx=0;exitDy=0;entryX=0;entryY=0.5;entryDx=0;entryDy=0;entryPerimeter=0;" parent="1" source="2G1lmGuWpZuiCo4TVPLS-1" target="2G1lmGuWpZuiCo4TVPLS-8" edge="1">
          <mxGeometry width="50" height="50" relative="1" as="geometry">
            <mxPoint x="430" y="-680" as="sourcePoint" />
            <mxPoint x="480" y="-730" as="targetPoint" />
            <Array as="points">
              <mxPoint x="364" y="-765" />
            </Array>
          </mxGeometry>
        </mxCell>
        <mxCell id="YxMa3ve18M_grNWk3aBt-1" value="abtest-experiments-request" style="points=[[0,0,0],[0.25,0,0],[0.5,0,0],[0.75,0,0],[1,0,0],[0,1,0],[0.25,1,0],[0.5,1,0],[0.75,1,0],[1,1,0],[0,0.25,0],[0,0.5,0],[0,0.75,0],[1,0.25,0],[1,0.5,0],[1,0.75,0]];outlineConnect=0;fontColor=#232F3E;gradientColor=#F78E04;gradientDirection=north;fillColor=#D05C17;strokeColor=#ffffff;dashed=0;verticalLabelPosition=bottom;verticalAlign=top;align=center;html=1;fontSize=12;fontStyle=0;aspect=fixed;shape=mxgraph.aws4.resourceIcon;resIcon=mxgraph.aws4.lambda;" vertex="1" parent="1">
          <mxGeometry x="770" y="-594" width="50" height="50" as="geometry" />
        </mxCell>
        <mxCell id="YxMa3ve18M_grNWk3aBt-2" value="AB테스트 그룹 조회" style="endArrow=classic;html=1;startArrow=none;startFill=0;exitX=1;exitY=0.5;exitDx=0;exitDy=0;exitPerimeter=0;entryX=0;entryY=0.5;entryDx=0;entryDy=0;entryPerimeter=0;" edge="1" parent="1" source="2G1lmGuWpZuiCo4TVPLS-6" target="YxMa3ve18M_grNWk3aBt-1">
          <mxGeometry width="50" height="50" relative="1" as="geometry">
            <mxPoint x="830" y="-559" as="sourcePoint" />
            <mxPoint x="760" y="-561" as="targetPoint" />
          </mxGeometry>
        </mxCell>
      </root>
    </mxGraphModel>
  </diagram>
</mxfile>
